<svg width="475" height="508" viewBox="0 0 475 508" fill="none" xmlns="http://www.w3.org/2000/svg">
<path d="M34.0306 139.984H13.8143C13.8143 139.984 15.8302 134.979 31.5565 136.639C31.5565 136.639 39.391 127.671 50.8106 127.671C51.0301 125.549 51.9535 123.562 53.4335 122.026C54.9135 120.49 56.8651 119.493 58.9773 119.195C66.7775 117.694 68.2894 124.647 68.2894 124.647C70.4193 123.726 72.7152 123.251 75.0358 123.251C77.3563 123.251 79.6522 123.726 81.7821 124.647C89.5136 127.694 87.9444 136.616 87.9444 136.616C87.9444 136.616 110.257 135.883 114.094 139.984H102.64" stroke="white" stroke-width="0.952577" stroke-linecap="round" stroke-linejoin="round"/>
<path d="M37.5471 139.984H40.926" stroke="white" stroke-width="0.952577" stroke-linecap="round" stroke-linejoin="round"/>
<path d="M59.55 139.927H90.4413" stroke="white" stroke-width="0.952577" stroke-linecap="round" stroke-linejoin="round"/>
<path d="M206.344 252.622H176.827C176.827 252.622 178.556 248.35 191.969 249.77C191.969 249.77 198.658 242.119 208.394 242.119C208.585 240.308 209.374 238.612 210.638 237.301C211.902 235.99 213.567 235.138 215.369 234.88C222.024 233.609 223.318 239.542 223.318 239.542C225.135 238.755 227.094 238.35 229.074 238.35C231.054 238.35 233.013 238.755 234.83 239.542C241.427 242.142 240.098 249.759 240.098 249.759C240.098 249.759 259.135 249.129 262.399 252.622H255.252" stroke="white" stroke-width="0.952577" stroke-linecap="round" stroke-linejoin="round"/>
<path d="M213.319 252.405H217.546" stroke="white" stroke-width="0.952577" stroke-linecap="round" stroke-linejoin="round"/>
<path d="M204.248 53.4377H174.674C174.674 53.4377 176.403 49.1654 189.816 50.5971C189.816 50.5971 196.494 42.9344 206.241 42.9344C206.43 41.1241 207.22 39.4291 208.484 38.1194C209.748 36.8096 211.414 35.9604 213.216 35.707C219.871 34.4242 221.165 40.3573 221.165 40.3573C222.974 39.5789 224.923 39.1775 226.892 39.1775C228.862 39.1775 230.81 39.5789 232.619 40.3573C239.217 42.9574 237.877 50.5742 237.877 50.5742C237.877 50.5742 256.925 49.9443 260.189 53.4377H253.042" stroke="white" stroke-width="0.952577" stroke-linecap="round" stroke-linejoin="round"/>
<path d="M211.212 53.2201H215.45" stroke="white" stroke-width="0.952577" stroke-linecap="round" stroke-linejoin="round"/>
<path d="M111.459 306.605H37.7415C43.2394 300.729 75.2875 301.771 75.2875 301.771C75.2875 301.771 72.9968 288.966 84.1529 284.59C95.3091 280.215 103.533 284.59 103.533 284.59C103.533 284.59 105.709 274.602 116.911 276.756C128.113 278.909 128.652 288.931 128.652 288.931C145.065 288.931 156.313 301.828 156.313 301.828C178.9 299.423 181.809 306.616 181.809 306.616H173.574" stroke="white" stroke-width="0.952577" stroke-linecap="round" stroke-linejoin="round"/>
<path d="M167.401 306.605H164.274" stroke="white" stroke-width="0.952577" stroke-linecap="round" stroke-linejoin="round"/>
<path d="M124.219 306.605H134.986" stroke="white" stroke-width="0.952577" stroke-linecap="round" stroke-linejoin="round"/>
<path d="M364.076 129.652H275.881C275.881 129.652 279.535 120.638 307.849 123.651C307.849 123.651 321.96 107.478 342.52 107.478C342.52 107.478 343.207 94.8782 357.25 92.2094C371.292 89.5406 374.018 102.037 374.018 102.037C374.018 102.037 384.396 96.539 398.324 102.037C412.252 107.535 409.434 123.605 409.434 123.605C409.434 123.605 449.626 122.288 456.521 129.652H436.145" stroke="white" stroke-width="0.952577" stroke-linecap="round" stroke-linejoin="round"/>
<path d="M372.507 129.652H380.708" stroke="white" stroke-width="0.952577" stroke-linecap="round" stroke-linejoin="round"/>
<path d="M388.725 329.077H459.064C459.064 329.077 456.155 321.896 433.568 324.29C433.568 324.29 422.32 311.392 405.918 311.392C405.918 311.392 405.368 301.37 394.166 299.217C382.964 297.064 380.788 307.051 380.788 307.051C380.788 307.051 372.518 302.665 361.408 307.051C350.297 311.438 352.554 324.232 352.554 324.232C352.554 324.232 320.483 323.179 314.996 329.054H336.278" stroke="#263238" stroke-width="0.952577" stroke-linecap="round" stroke-linejoin="round"/>
<path d="M342.027 329.077H352.405" stroke="#263238" stroke-width="0.952577" stroke-linecap="round" stroke-linejoin="round"/>
<path d="M244.233 356.418V301.038H253.362V323.362H262.342V356.75" stroke="#263238" stroke-width="0.952577" stroke-linecap="round" stroke-linejoin="round"/>
<path d="M279.958 322.835V270.949H298.216V248.453H333.254V256.436H342.028V309.262" stroke="#263238" stroke-width="0.952577" stroke-linecap="round" stroke-linejoin="round"/>
<path d="M380.708 289.183V237.285H392.459V213.782H397.087V173.384H400.924V192.821L410.35 202.248V225.774H421.129V277.317H430.933V291.52" stroke="#263238" stroke-width="0.952577" stroke-linecap="round" stroke-linejoin="round"/>
<path d="M347.216 281.624H356.219V225.224H363.458V144.13H366.195V198.559H372.506V255.291H376.996" stroke="#263238" stroke-width="0.952577" stroke-linecap="round" stroke-linejoin="round"/>
<path d="M275.881 291.52H268.287V274.751H264.243V291.52H258.585V316.673" stroke="#263238" stroke-width="0.952577" stroke-linecap="round" stroke-linejoin="round"/>
<path d="M290.038 265.21V225.774H302.351V192.821H306.612V225.774H315.008V243.035" stroke="#263238" stroke-width="0.952577" stroke-linecap="round" stroke-linejoin="round"/>
<path d="M302.523 270.949H322.121V315.046" stroke="#263238" stroke-width="0.952577" stroke-linecap="round" stroke-linejoin="round"/>
<path d="M294.139 353.967V327.772H271.826V383.163" stroke="#263238" stroke-width="0.952577" stroke-linecap="round" stroke-linejoin="round"/>
<path d="M253.362 368.445V361.011H230.546V420.801H224.51" stroke="#263238" stroke-width="0.952577" stroke-linecap="round" stroke-linejoin="round"/>
<path d="M397.087 254.707H412.504" stroke="#263238" stroke-width="0.952577" stroke-linecap="round" stroke-linejoin="round"/>
<path d="M397.087 262.839H412.504" stroke="#263238" stroke-width="0.952577" stroke-linecap="round" stroke-linejoin="round"/>
<path d="M397.087 271.888H411.324" stroke="#263238" stroke-width="0.952577" stroke-linecap="round" stroke-linejoin="round"/>
<path d="M327.504 252.622H306.612" stroke="#263238" stroke-width="0.952577" stroke-linecap="round" stroke-linejoin="round"/>
<path d="M287.049 280.49H310.987" stroke="#263238" stroke-width="0.952577" stroke-linecap="round" stroke-linejoin="round"/>
<path d="M287.049 285.644H310.987" stroke="#263238" stroke-width="0.952577" stroke-linecap="round" stroke-linejoin="round"/>
<path d="M287.049 291.52H310.987" stroke="#263238" stroke-width="0.952577" stroke-linecap="round" stroke-linejoin="round"/>
<path d="M362.106 236.037V289.183" stroke="#263238" stroke-width="0.952577" stroke-linecap="round" stroke-linejoin="round"/>
<path d="M366.195 236.037V289.183" stroke="#263238" stroke-width="0.952577" stroke-linecap="round" stroke-linejoin="round"/>
<path d="M91.3574 156.478C91.3574 156.478 103.453 145.367 111.826 146.696C113.223 146.913 106.041 160.59 106.041 160.59L91.3574 156.478Z" fill="#92E3A9"/>
<path opacity="0.5" d="M91.3574 156.478C91.3574 156.478 103.453 145.367 111.826 146.696C113.223 146.913 106.041 160.59 106.041 160.59L91.3574 156.478Z" fill="black" fill-opacity="0.7"/>
<path d="M91.3574 156.478C91.3574 156.478 103.453 145.367 111.826 146.696C113.223 146.913 106.041 160.59 106.041 160.59L91.3574 156.478Z" stroke="#263238" stroke-width="0.952577" stroke-linecap="round" stroke-linejoin="round"/>
<path d="M202.151 204.722C202.151 204.722 202.61 241.122 203.961 247.193C205.196 251.699 207.025 256.021 209.402 260.044C209.402 260.044 205.462 339.798 206.744 343.486C208.027 347.175 213.479 372.419 213.479 372.419L219.825 469.079H217.534C217.534 469.079 208.898 377.848 208.898 375.145C208.898 372.442 202.106 348.664 202.106 348.664C202.106 348.664 201.201 269.563 202.106 265.05C203.011 260.537 196.791 248.613 196.791 248.613C196.791 248.613 196.871 212.029 194.958 208.398C195.004 208.387 198.979 205.134 202.151 204.722Z" fill="#757575" stroke="#263238" stroke-width="0.952577" stroke-linecap="round" stroke-linejoin="round"/>
<path d="M111.826 247.193C111.826 247.193 99.524 267.867 103.453 286.136C103.453 286.136 98.768 348.881 96.9468 352.959C95.1257 357.036 82.9043 375.065 79.1474 401.317C76.8759 417.204 73.4303 432.901 68.8388 448.279H85.1951C85.1951 448.279 109.615 370.999 114.62 366.956C119.626 362.912 128.835 335.881 135.341 311.759C135.341 311.759 144.114 354.551 147.608 362.718C151.101 370.884 148.18 394.468 153.174 409.541C158.111 424.432 157.756 448.325 157.756 448.325C157.756 448.325 174.765 452.54 174.605 448.325C173.459 419.163 179.358 393.918 172.062 367.964C168.626 355.845 175.498 285.025 162.967 247.25L111.826 247.193Z" fill="#BFBFBF"/>
<path opacity="0.3" d="M134.986 306.605C134.986 307.429 135.112 309.514 135.26 312.103C128.755 336.156 119.614 362.844 114.643 366.898C109.672 370.953 85.2181 448.222 85.2181 448.222H68.8848C73.4762 432.844 76.9218 417.147 79.1933 401.26C82.9159 375.008 95.2289 357.025 96.9928 352.936C98.7567 348.847 103.453 286.217 103.453 286.217C102.51 281.468 102.416 276.589 103.178 271.808C104.048 278.027 107.76 285.747 120.359 287.74C119.589 285.345 119.37 282.807 119.719 280.316C120.068 277.825 120.976 275.445 122.375 273.354C122.375 273.354 119.935 286.217 130.267 292.241C130.725 292.505 130.576 294.326 130.576 294.326C130.576 294.326 134.94 303.615 134.986 306.605Z" fill="black" fill-opacity="0.7"/>
<path opacity="0.3" d="M164.594 252.427C160.413 254.959 151.353 257.914 132.065 257.135C128.89 259.743 126.229 262.921 124.219 266.504L122.375 265.038C122.375 265.038 113.544 270.067 103.945 267.604C105.585 260.456 108.239 253.578 111.826 247.182H163.082C163.598 248.865 164.113 250.618 164.594 252.427Z" fill="black" fill-opacity="0.7"/>
<path d="M111.826 247.193C111.826 247.193 99.524 267.867 103.453 286.136C103.453 286.136 98.768 348.881 96.9468 352.959C95.1257 357.036 82.9043 375.065 79.1474 401.317C76.8759 417.204 73.4303 432.901 68.8388 448.279H85.1951C85.1951 448.279 109.615 370.999 114.62 366.956C119.626 362.912 128.835 335.881 135.341 311.759C135.341 311.759 144.114 354.551 147.608 362.718C151.101 370.884 148.18 394.468 153.174 409.541C158.111 424.432 157.756 448.325 157.756 448.325C157.756 448.325 174.765 452.54 174.605 448.325C173.459 419.163 179.358 393.918 172.062 367.964C168.626 355.845 175.498 285.025 162.967 247.25L111.826 247.193Z" stroke="#263238" stroke-width="0.952577" stroke-linecap="round" stroke-linejoin="round"/>
<path d="M125.57 263.366C125.57 263.366 117.094 279.55 126.315 289.172C126.315 289.172 137.963 300.11 150.528 297.487" stroke="#263238" stroke-width="0.952577" stroke-linecap="round" stroke-linejoin="round"/>
<path d="M135.364 311.702C135.364 311.702 134.218 302.882 132.03 299.102C129.843 295.322 130.576 294.292 130.576 294.292C130.576 294.292 120.657 297.35 114.242 295.013" stroke="#263238" stroke-width="0.952577" stroke-linecap="round" stroke-linejoin="round"/>
<path d="M103.453 286.217C105.699 288.333 108.364 289.954 111.277 290.974C114.189 291.994 117.283 292.391 120.359 292.138" stroke="#263238" stroke-width="0.952577" stroke-linecap="round" stroke-linejoin="round"/>
<path d="M125.57 151.277C126.487 150.899 172.199 147.486 174.479 142.779C172.235 138.519 170.549 133.988 169.462 129.297C166.607 118.473 162.016 108.184 155.866 98.8298L167.32 96.7337C174.192 116.045 190.411 133.18 190.125 151.094C190.125 151.094 165.384 167.92 140.197 170.658C132.947 171.425 125.57 151.277 125.57 151.277Z" fill="white" stroke="#263238" stroke-width="0.952577" stroke-linecap="round" stroke-linejoin="round"/>
<path d="M140.804 138.552C139.254 138.337 137.676 138.639 136.314 139.411C131.664 142.229 132.511 150.636 132.511 150.636L111.826 146.696C116.338 140.133 115.182 125.071 115.182 125.071C134.562 106.905 139.235 123.547 140.38 133.089C140.735 135.78 140.793 137.899 140.804 138.552Z" fill="white" stroke="#263238" stroke-width="0.952577" stroke-linecap="round" stroke-linejoin="round"/>
<path d="M140.804 138.552C139.253 138.337 137.675 138.639 136.314 139.411C134.657 136.641 133.614 133.548 133.256 130.34L140.414 133.1C140.735 135.78 140.792 137.899 140.804 138.552Z" fill="#263238"/>
<path d="M104.404 94.0649C104.404 94.0649 102.64 83.7564 119.958 82.1757C137.276 80.5951 153.175 85.3714 153.175 97.9936C153.175 110.616 142.729 136.685 121.94 125.071C101.151 113.456 104.404 94.0649 104.404 94.0649Z" fill="#263238"/>
<path d="M114.46 126.503C112.673 124.212 107.954 115.988 107.198 112.849C102.525 93.5495 113.086 92.1521 120.943 88.2463C135.89 80.8356 149.486 95.8632 148.318 109.241C147.15 122.62 153.461 121.039 153.174 122.883C152.934 124.441 148.925 126.021 148.925 126.021C148.861 127.168 148.895 128.317 149.028 129.458L148.043 130.363C147.528 132.905 146.359 139.32 145.523 139.526C143.851 140.03 134.47 136.754 132.924 133.283" fill="white"/>
<path d="M114.46 126.503C112.673 124.212 107.954 115.988 107.198 112.849C102.525 93.5495 113.086 92.1521 120.943 88.2463C135.89 80.8356 149.486 95.8632 148.318 109.241C147.15 122.62 153.461 121.039 153.174 122.883C152.934 124.441 148.925 126.021 148.925 126.021C148.861 127.168 148.895 128.317 149.028 129.458L148.043 130.363C147.528 132.905 146.359 139.32 145.523 139.526C143.851 140.03 134.47 136.754 132.924 133.283" stroke="#263238" stroke-width="0.952577" stroke-linecap="round" stroke-linejoin="round"/>
<path d="M146.875 114.888C146.737 115.862 146.188 116.583 145.649 116.515C145.111 116.446 144.767 115.587 144.893 114.613C145.019 113.64 145.58 112.918 146.13 112.998C146.68 113.078 147.047 113.915 146.875 114.888Z" fill="#263238"/>
<path d="M147.608 107.283C147.608 107.283 145.111 106.859 142.602 109.574" stroke="#263238" stroke-width="0.952577" stroke-linecap="round" stroke-linejoin="round"/>
<path d="M142.465 88.315C135.592 83.0577 97.2446 77.6514 103.613 107.959C102.765 111.715 105.343 118.05 113.922 128.324C113.922 128.324 118.079 125.071 122.535 127.866C122.535 127.866 125.227 119.527 129.865 117.637C130.868 117.198 131.757 116.536 132.466 115.701C144.744 112.632 146.302 100.983 146.142 96.9055C146.875 95.7945 148.192 92.6446 142.465 88.315Z" fill="#263238"/>
<path d="M111.826 89.2084C111.826 89.2084 101.838 77.9836 89.5935 84.2489C77.3492 90.5142 80.6251 108.016 87.4058 117.465C94.1866 126.915 85.871 134.532 88.494 139.675C91.1169 144.817 96.6492 142.698 96.6492 142.698C95.7385 142.147 94.9685 141.391 94.4 140.49C93.8315 139.59 93.48 138.569 93.3733 137.51C92.9266 133.799 100.372 132.046 100.372 121.543C100.372 111.04 97.9664 101.636 106.717 106.011C115.468 110.387 111.826 89.2084 111.826 89.2084Z" fill="#263238"/>
<path d="M148.054 130.328C148.054 130.328 144.229 130.523 142.602 129.011" stroke="#263238" stroke-width="0.952577" stroke-linecap="round" stroke-linejoin="round"/>
<g opacity="0.2">
<path opacity="0.2" d="M111.826 89.2084C111.826 89.2084 117.782 96.8138 110.623 103.114" stroke="white" stroke-width="0.952577" stroke-linecap="round" stroke-linejoin="round"/>
<path opacity="0.2" d="M142.465 88.315C142.465 88.315 151.628 98.3143 133.302 109.516" stroke="white" stroke-width="0.952577" stroke-linecap="round" stroke-linejoin="round"/>
<path opacity="0.2" d="M139.029 86.5625C139.029 86.5625 142.603 89.9987 134.447 96.7451C126.292 103.492 120.199 105.244 114.185 104.935" stroke="white" stroke-width="0.952577" stroke-linecap="round" stroke-linejoin="round"/>
<path opacity="0.2" d="M109.088 95.0957C109.088 95.0957 103.808 86.5053 95.435 92.3926C87.0621 98.28 88.8718 106.389 93.3962 115.701C97.9205 125.014 94.8508 131.13 94.8508 131.13" stroke="white" stroke-width="0.952577" stroke-linecap="round" stroke-linejoin="round"/>
<path opacity="0.2" d="M93.213 85.1423C93.213 85.1423 82.9045 85.4401 83.6948 98.887C84.4851 112.334 89.2843 112.254 90.3381 118.737" stroke="white" stroke-width="0.952577" stroke-linecap="round" stroke-linejoin="round"/>
<path opacity="0.2" d="M121.161 115.701C121.161 115.701 110.852 117.992 106.981 109.516" stroke="white" stroke-width="0.952577" stroke-linecap="round" stroke-linejoin="round"/>
</g>
<path d="M131.102 116.984C131.102 116.984 129.407 110.799 124.917 112.884C120.427 114.968 124.356 120.902 126.578 123.719C126.873 124.177 127.293 124.539 127.789 124.762C128.286 124.986 128.836 125.061 129.373 124.979C129.911 124.896 130.414 124.66 130.82 124.298C131.226 123.937 131.519 123.465 131.664 122.94" fill="white"/>
<path d="M131.102 116.984C131.102 116.984 129.407 110.799 124.917 112.884C120.427 114.968 124.356 120.902 126.578 123.719C126.873 124.177 127.293 124.539 127.789 124.762C128.286 124.986 128.836 125.061 129.373 124.979C129.911 124.896 130.414 124.66 130.82 124.298C131.226 123.937 131.519 123.465 131.664 122.94" stroke="#263238" stroke-width="0.952577" stroke-linecap="round" stroke-linejoin="round"/>
<path d="M110.394 143.489L109.913 146.982C92.2393 163.51 103.911 202.351 115.01 227.16L107.92 249.564C107.92 249.564 138.158 259.632 165.716 251.752L163.082 225.442L160.024 204.893C160.024 204.893 162.544 197.895 163.036 184.276C163.529 170.658 137.883 135.838 110.394 143.489Z" fill="#263238"/>
<path d="M160.791 102.346C160.791 102.346 156.21 104.797 154.251 104.133C154.251 104.133 144.389 104.694 144.114 100.525C145.805 100.232 147.421 99.6072 148.87 98.6872C150.319 97.7673 151.571 96.5701 152.556 95.1645C154.205 92.8737 168.431 92.8737 167.595 97.6271C167.456 98.3928 167.142 99.116 166.677 99.74C166.212 100.364 165.609 100.872 164.915 101.224" fill="white"/>
<path d="M160.791 102.346C160.791 102.346 156.21 104.797 154.251 104.133C154.251 104.133 144.389 104.694 144.114 100.525C145.805 100.232 147.421 99.6072 148.87 98.6872C150.319 97.7673 151.571 96.5701 152.556 95.1645C154.205 92.8737 168.431 92.8737 167.595 97.6271C167.456 98.3928 167.142 99.116 166.677 99.74C166.212 100.364 165.609 100.872 164.915 101.224" stroke="#263238" stroke-width="0.952577" stroke-linecap="round" stroke-linejoin="round"/>
<path d="M152.544 95.1645C154.572 94.8438 153.575 95.8747 155.018 95.7716C156.462 95.6685 156.588 94.7407 157.641 96.1152C158.695 97.4897 159.863 96.1152 160.952 96.5733" fill="white"/>
<path d="M152.544 95.1645C154.572 94.8438 153.575 95.8747 155.018 95.7716C156.462 95.6685 156.588 94.7407 157.641 96.1152C158.695 97.4897 159.863 96.1152 160.952 96.5733" stroke="#263238" stroke-width="0.952577" stroke-linecap="round" stroke-linejoin="round"/>
<path d="M154.24 104.099C154.377 102.953 158.397 100.788 159.451 99.3681L154.24 104.099Z" fill="white"/>
<path d="M154.24 104.099C154.377 102.953 158.397 100.788 159.451 99.3681" stroke="#263238" stroke-width="0.952577" stroke-linecap="round" stroke-linejoin="round"/>
<path d="M150.826 104.099C149.578 102.587 152.464 101.899 155.225 99.1963L150.826 104.099Z" fill="white"/>
<path d="M150.826 104.099C149.578 102.587 152.464 101.899 155.225 99.1963" stroke="#263238" stroke-width="0.952577" stroke-linecap="round" stroke-linejoin="round"/>
<path d="M147.493 103.514C145.935 101.968 146.588 101.418 149.028 100.284C150.372 99.7173 151.553 98.8236 152.464 97.6844" fill="white"/>
<path d="M147.493 103.514C145.935 101.968 146.588 101.418 149.028 100.284C150.372 99.7173 151.553 98.8236 152.464 97.6844" stroke="#263238" stroke-width="0.952577" stroke-linecap="round" stroke-linejoin="round"/>
<path d="M151.525 438.898C151.525 438.898 161.753 435.576 169.92 438.577L172.463 448.267L177.972 438.898C177.972 438.898 176.128 450.684 177.972 454.292C179.816 457.9 190.801 459.607 192.599 461.955C194.397 464.303 194.981 469.079 194.981 469.079H152.292L155.614 454.292L151.525 438.898Z" fill="#92E3A9" stroke="#263238" stroke-width="0.952577" stroke-linecap="round" stroke-linejoin="round"/>
<path d="M66.3761 438.898C66.3761 438.898 74.3938 435.576 82.5605 438.577L81.7816 448.267L91.7351 438.898C91.7351 438.898 85.4698 450.684 87.3139 454.292C89.158 457.9 100.142 459.607 101.941 461.955C103.739 464.303 104.323 469.079 104.323 469.079H61.6112L66.0324 454.292L66.3761 438.898Z" fill="#92E3A9"/>
<path opacity="0.3" d="M66.3761 438.898C66.3761 438.898 74.3938 435.576 82.5605 438.577L81.7816 448.267L91.7351 438.898C91.7351 438.898 85.4698 450.684 87.3139 454.292C89.158 457.9 100.142 459.607 101.941 461.955C103.739 464.303 104.323 469.079 104.323 469.079H61.6112L66.0324 454.292L66.3761 438.898Z" fill="black" fill-opacity="0.7"/>
<path d="M66.3761 438.898C66.3761 438.898 74.3938 435.576 82.5605 438.577L81.7816 448.267L91.7351 438.898C91.7351 438.898 85.4698 450.684 87.3139 454.292C89.158 457.9 100.142 459.607 101.941 461.955C103.739 464.303 104.323 469.079 104.323 469.079H61.6112L66.0324 454.292L66.3761 438.898Z" stroke="#263238" stroke-width="0.952577" stroke-linecap="round" stroke-linejoin="round"/>
<path d="M152.304 219.085C152.304 219.085 158.478 210.827 159.577 206.211L160.849 210.22C160.849 210.22 157.584 219.383 152.304 224.136V219.085Z" fill="#BFBFBF" stroke="#263238" stroke-width="0.952577" stroke-linecap="round" stroke-linejoin="round"/>
<path d="M127.815 223.037C127.815 223.037 136.451 226.289 142.568 224.251C146.596 222.744 150.23 220.343 153.197 217.229L155.19 220.849C155.19 220.849 141.388 244.902 127.815 241.26" fill="#92E3A9"/>
<path d="M127.815 223.037C127.815 223.037 136.451 226.289 142.568 224.251C146.596 222.744 150.23 220.343 153.197 217.229L155.19 220.849C155.19 220.849 141.388 244.902 127.815 241.26" stroke="#263238" stroke-width="0.952577" stroke-linecap="round" stroke-linejoin="round"/>
<path d="M128.72 254.707C124.23 266.504 80.7282 263.79 72.2637 257.158C70.3967 255.692 68.6671 252.863 67.1552 249.289C64.1487 241.651 62.128 233.66 61.1419 225.511C60.8785 223.392 60.6952 221.387 60.615 219.589C60.4203 215.557 60.7066 212.522 61.5657 211.422C65.0019 207.058 68.839 202.832 68.839 202.832C68.839 202.832 62.1498 167.095 68.839 163.682C74.3588 160.388 80.4023 158.063 86.7071 156.81C96.3743 155.103 112.639 150.292 119.924 160.246C120.296 160.77 120.615 161.33 120.874 161.918C127.735 176.476 133.016 243.413 128.72 254.707Z" fill="#92E3A9"/>
<path opacity="0.3" d="M128.72 254.707C124.23 266.504 80.7281 263.79 72.2636 257.158C70.3966 255.692 68.6671 252.863 67.1552 249.289C64.7727 241.145 62.5736 231.742 61.1991 225.511C60.3401 221.582 59.7903 218.925 59.7444 218.638C59.9644 219.031 60.2845 219.359 60.6722 219.589C62.7225 221.055 69.1825 223.793 89.3071 225.121C89.3071 225.121 74.669 229.187 63.1921 224.159C63.1921 224.159 67.1208 247.846 71.3473 252.519C75.5738 257.192 94.7592 261.132 99.295 258.567C103.831 256.001 100.75 231.925 101.689 229.462C102.628 227 106.27 224.949 106.465 224.159C106.66 223.369 107.45 211.812 107.45 211.812C107.45 211.812 79.2047 206.016 71.3473 206.234C63.4899 206.451 74.669 200.862 82.5264 201.767C90.3838 202.671 106.087 206.016 106.465 206.234C106.843 206.451 103.201 171.688 99.1346 166.488C95.0685 161.288 104.266 161.517 106.465 169.787C108.573 177.805 113.853 206.898 114.231 208.902C114.139 207.31 113.086 190.232 112.009 183.864C110.921 177.186 111.024 168.39 112.181 167.485C113.338 166.58 119.179 164.266 119.729 163.006C120.021 162.56 120.413 162.187 120.874 161.918C127.735 176.476 133.015 243.413 128.72 254.707Z" fill="black" fill-opacity="0.7"/>
<path d="M128.72 254.707C124.23 266.504 80.7282 263.79 72.2637 257.158C70.3967 255.692 68.6671 252.863 67.1552 249.289C64.1487 241.651 62.128 233.66 61.1419 225.511V225.511C60.8785 223.392 60.6952 221.387 60.615 219.589C60.4203 215.557 60.7066 212.522 61.5657 211.422C65.0019 207.058 68.839 202.832 68.839 202.832C68.839 202.832 62.1498 167.095 68.839 163.682C74.3588 160.388 80.4023 158.063 86.7071 156.81C96.3743 155.103 112.639 150.292 119.924 160.246C120.296 160.77 120.615 161.33 120.874 161.918C127.735 176.476 133.016 243.413 128.72 254.707Z" stroke="#263238" stroke-width="0.952577" stroke-linecap="round" stroke-linejoin="round"/>
<path d="M106.041 156.283C102.997 153.774 99.3332 152.132 95.4348 151.529C89.1008 150.625 83.6602 159.227 83.6602 159.227H86.6038C86.6038 159.227 90.6814 151.3 98.8367 158.322" fill="#92E3A9"/>
<path d="M106.041 156.283C102.997 153.774 99.3332 152.132 95.4348 151.529C89.1008 150.625 83.6602 159.227 83.6602 159.227H86.6038C86.6038 159.227 90.6814 151.3 98.8367 158.322" stroke="#263238" stroke-width="0.952577" stroke-linecap="round" stroke-linejoin="round"/>
<path d="M75.9519 162.399C75.9519 162.399 92.7205 161.036 98.1611 165.343C103.602 169.65 106.465 204.722 106.465 204.722C106.465 204.722 81.3581 197.746 74.1422 201.366" stroke="#263238" stroke-width="0.952577" stroke-linecap="round" stroke-linejoin="round"/>
<path d="M70.7401 193.44C70.7401 193.44 66.1585 177.404 68.8845 173.281C71.6106 169.157 88.8717 169.844 92.0444 173.281C95.2172 176.717 95.4806 195.936 95.4806 195.936C95.4806 195.936 80.7508 192.638 74.1877 193.646" stroke="#263238" stroke-width="0.952577" stroke-linecap="round" stroke-linejoin="round"/>
<path d="M62.585 220.849C63.4898 221.994 95.2975 227.653 100.807 224.022" stroke="#263238" stroke-width="0.952577" stroke-linecap="round" stroke-linejoin="round"/>
<path d="M63.9479 214.744C66.2387 212.934 89.1467 217.458 93.8542 217.676C98.5618 217.894 106.958 212.694 107.45 211.766C107.45 211.766 113.715 245.979 111.826 252.553C109.936 259.128 104.724 260.25 104.724 260.25" stroke="#263238" stroke-width="0.952577" stroke-linecap="round" stroke-linejoin="round"/>
<path d="M69.8352 250.308C69.8352 250.308 71.1982 258.005 99.2948 260.273" stroke="#263238" stroke-width="0.952577" stroke-linecap="round" stroke-linejoin="round"/>
<path d="M115.376 221.765C116.522 221.307 124.643 220.448 127.609 218.592C127.857 222.422 127.846 226.264 127.575 230.092C127.575 230.092 118.744 233.528 117.152 232.818C115.56 232.108 114.953 227.149 114.953 227.149" stroke="#263238" stroke-width="0.952577" stroke-linecap="round" stroke-linejoin="round"/>
<path d="M126.315 230.619C126.315 230.619 127.059 245.2 126.315 247.193C125.57 249.186 117.644 252.118 116.739 251.889C115.835 251.66 114.242 237.617 114.242 237.617" stroke="#263238" stroke-width="0.952577" stroke-linecap="round" stroke-linejoin="round"/>
<path d="M96.9468 160.59C96.9468 160.59 105.182 160.59 108.126 166.03C111.07 171.471 114.38 202.866 114.998 204.722" stroke="#263238" stroke-width="0.952577" stroke-linecap="round" stroke-linejoin="round"/>
<path d="M111.826 156.787C111.826 156.787 130.152 146.73 139.739 149.834C149.326 152.938 153.197 162.628 153.197 162.628C153.197 162.628 149.921 153.58 140.804 154.164C131.687 154.748 118.549 163.808 118.549 163.808" fill="#92E3A9"/>
<path d="M111.826 156.787C111.826 156.787 130.152 146.73 139.739 149.834C149.326 152.938 153.197 162.628 153.197 162.628C153.197 162.628 149.921 153.58 140.804 154.164C131.687 154.748 118.549 163.808 118.549 163.808" stroke="#263238" stroke-width="0.952577" stroke-linecap="round" stroke-linejoin="round"/>
<path d="M140.804 154.118C140.804 154.118 151.113 153.259 154.274 158.093C157.435 162.926 154.274 175.491 154.274 175.491C154.274 175.491 156.989 178.698 152.304 181.012C147.619 183.326 135.031 184.586 132.042 180.027C129.052 175.468 130.656 156.019 140.804 154.118Z" fill="#263238"/>
<path d="M153.541 176.396C153.541 176.396 142.637 215.809 146.21 219.658C150.813 219.914 155.373 220.682 159.806 221.948C180.275 227.16 191.877 223.38 191.877 223.38L189.701 234.777C169.199 234.239 149.372 237.961 132.786 231.203C132.786 231.203 126.04 202.064 132.603 177.587C132.603 177.587 134.505 175.136 140.14 174.403C144.706 173.697 149.378 174.391 153.541 176.396Z" fill="white" stroke="#263238" stroke-width="0.952577" stroke-linecap="round" stroke-linejoin="round"/>
<path d="M188.704 234.811C192.599 237.365 198.234 233.357 203.446 233.849C208.657 234.342 206.137 219.417 206.137 219.417C206.137 219.417 199.62 216.302 197.707 215.603C195.794 214.904 192.942 219.222 186.918 224.766" fill="white"/>
<path d="M188.704 234.811C192.599 237.365 198.234 233.357 203.446 233.849C208.657 234.342 206.137 219.417 206.137 219.417C206.137 219.417 199.62 216.302 197.707 215.603C195.794 214.904 192.942 219.222 186.918 224.766" stroke="#263238" stroke-width="0.952577" stroke-linecap="round" stroke-linejoin="round"/>
<path d="M112.547 146.833C118.306 146.328 124.11 146.765 129.728 148.128" stroke="white" stroke-width="0.952577" stroke-linecap="round" stroke-linejoin="round"/>
<path d="M131.664 179.305C131.664 179.305 129.9 176.728 131.664 175.491C131.664 175.491 126.532 171.54 127.266 167.473" stroke="white" stroke-width="0.952577" stroke-linecap="round" stroke-linejoin="round"/>
<path d="M155.683 170.463L155.19 175.491C155.19 175.491 157.722 177.106 153.197 179.305" stroke="white" stroke-width="0.952577" stroke-linecap="round" stroke-linejoin="round"/>
<path d="M157.825 206.211C157.825 206.211 152.395 210.323 149.291 209.647" stroke="white" stroke-width="0.952577" stroke-linecap="round" stroke-linejoin="round"/>
<path d="M135.386 245.853C135.386 245.853 148.375 253.401 162.12 250.308" stroke="white" stroke-width="0.952577" stroke-linecap="round" stroke-linejoin="round"/>
<path d="M199.276 220.849C201.725 221.176 204.145 221.689 206.515 222.384" stroke="#263238" stroke-width="0.952577" stroke-linecap="round" stroke-linejoin="round"/>
<path d="M199.276 225.602C199.276 225.602 205.152 225.602 206.744 225.774" stroke="#263238" stroke-width="0.952577" stroke-linecap="round" stroke-linejoin="round"/>
<path d="M199.276 229.439C199.276 229.439 206.664 229.222 206.515 229.966" stroke="#263238" stroke-width="0.952577" stroke-linecap="round" stroke-linejoin="round"/>
<path d="M65.3109 463.959C65.3109 463.959 76.8335 462.814 82.9614 465.311" stroke="#263238" stroke-width="0.952577" stroke-linecap="round" stroke-linejoin="round"/>
<path d="M68.0141 453.204C68.0141 453.204 74.3596 451.738 77.7614 453.204" stroke="#263238" stroke-width="0.952577" stroke-linecap="round" stroke-linejoin="round"/>
<path d="M87.3141 454.292C87.3141 454.292 88.8719 457.156 88.4595 459.194" stroke="#263238" stroke-width="0.952577" stroke-linecap="round" stroke-linejoin="round"/>
<path d="M101.941 461.955C99.1756 462.229 96.3902 462.229 93.6251 461.955" stroke="#263238" stroke-width="0.952577" stroke-linecap="round" stroke-linejoin="round"/>
<path d="M177.972 454.292C177.972 454.292 182.187 459.194 182.187 460.557" stroke="#263238" stroke-width="0.952577" stroke-linecap="round" stroke-linejoin="round"/>
<path d="M192.622 461.955C190.609 462.327 188.552 462.404 186.517 462.184" stroke="#263238" stroke-width="0.952577" stroke-linecap="round" stroke-linejoin="round"/>
<path d="M155.248 465.311C155.248 465.311 168.156 463.272 175.865 465.311" stroke="#263238" stroke-width="0.952577" stroke-linecap="round" stroke-linejoin="round"/>
<path d="M158.42 454.292C158.42 454.292 164.766 454.487 167.492 452.883" stroke="#263238" stroke-width="0.952577" stroke-linecap="round" stroke-linejoin="round"/>
<path d="M130.267 304.91C130.267 304.91 123.291 346.9 114.231 356.865C114.231 356.865 102.456 389.428 97.7716 398.099C93.0869 406.77 87.3027 434.568 87.3027 434.568" stroke="#263238" stroke-width="0.952577" stroke-linecap="round" stroke-linejoin="round"/>
<path d="M96.9468 352.993C96.9468 352.993 101.253 346.716 106.11 352.993" stroke="#263238" stroke-width="0.952577" stroke-linecap="round" stroke-linejoin="round"/>
<path d="M151.811 359.522C151.811 359.522 153.896 348.457 162.956 357.518" stroke="#263238" stroke-width="0.952577" stroke-linecap="round" stroke-linejoin="round"/>
<path d="M162.956 256.436C162.956 256.436 168.316 279.482 167.412 292.196C167.412 292.196 170.435 339.764 169.531 352.993" stroke="#263238" stroke-width="0.952577" stroke-linecap="round" stroke-linejoin="round"/>
<path d="M174.536 142.779C174.536 142.779 180.16 145.608 183.482 143.088" stroke="#263238" stroke-width="0.952577" stroke-linecap="round" stroke-linejoin="round"/>
<path d="M369.975 435.611C369.975 435.611 367.57 410.297 372.461 386.863C377.352 363.428 367.879 360.656 363.962 367.082C360.045 373.507 358.773 394.789 358.773 394.789C358.773 394.789 356.803 373.221 353.413 362.225C348.442 346.109 343.104 333.831 336.014 337.462C327.779 341.654 346.918 370.678 350.687 404.651C350.687 404.651 335.27 388.775 327.882 373.977C320.494 359.178 311.526 368.17 318.112 381.422C324.698 394.674 340.39 399.519 349.037 413.573C349.037 413.573 327.447 400.699 323.083 408.499C320.62 412.897 329.405 413.825 333.323 414.776C352.359 419.357 361.179 439.138 361.179 439.138L369.975 435.611Z" fill="#92E3A9" stroke="#263238" stroke-width="0.952577" stroke-linecap="round" stroke-linejoin="round"/>
<path opacity="0.2" d="M369.975 435.611C369.975 435.611 367.57 410.297 372.461 386.863C377.352 363.428 367.879 360.656 363.962 367.082C360.045 373.507 358.773 394.789 358.773 394.789C358.773 394.789 356.803 373.221 353.413 362.225C348.442 346.109 343.104 333.831 336.014 337.462C327.779 341.654 346.918 370.678 350.687 404.651C350.687 404.651 335.27 388.775 327.882 373.977C320.494 359.178 311.526 368.17 318.112 381.422C324.698 394.674 340.39 399.519 349.037 413.573C349.037 413.573 327.447 400.699 323.083 408.499C320.62 412.897 329.405 413.825 333.323 414.776C352.359 419.357 361.179 439.138 361.179 439.138L369.975 435.611Z" fill="black" fill-opacity="0.7" stroke="#263238" stroke-width="0.952577" stroke-miterlimit="10"/>
<path d="M369.082 404.926C369.082 404.926 370.353 381.869 361.946 362.763C353.539 343.658 361.041 342.146 365.543 346.946C370.044 351.745 373.48 376.462 373.48 376.462C373.48 376.462 377.432 354.31 375.634 338.985C373.835 323.66 373.961 315.046 380.272 315.046C388.29 315.046 386.446 352.547 379.929 375.019C379.929 375.019 390.237 358.686 393.834 344.723C397.43 330.761 406.731 336.809 403.501 349.305C400.271 361.801 387.786 368.777 382.953 382.327C382.953 382.327 398.988 367.437 404.177 373.301C407.075 376.611 399.744 379.028 396.571 380.506C381.166 387.882 377.214 406.334 377.214 406.334L369.082 404.926Z" fill="#92E3A9" stroke="#263238" stroke-width="0.952577" stroke-linecap="round" stroke-linejoin="round"/>
<path d="M366.195 361.813C373.343 377.929 373.755 401.444 373.755 401.444C373.755 401.444 383.147 354.723 380.788 335.011" stroke="#263238" stroke-width="0.952577" stroke-linecap="round" stroke-linejoin="round"/>
<path d="M397.087 352.547C397.087 352.547 386.595 374.676 376.996 383.163" stroke="#263238" stroke-width="0.952577" stroke-linecap="round" stroke-linejoin="round"/>
<path d="M397.087 376.394C397.087 376.394 379.356 387.848 375.004 394.789" stroke="#263238" stroke-width="0.952577" stroke-linecap="round" stroke-linejoin="round"/>
<path d="M354.215 433.16C354.215 433.16 340.676 414.501 337.446 393.884C334.216 373.267 327.08 376.073 325.866 382.522C324.652 388.97 335.132 411.638 335.132 411.638C335.132 411.638 319.83 395.029 313.129 381.216C306.429 367.402 301.606 360.163 296.292 363.577C289.511 367.929 311.354 398.465 328.981 413.848C328.981 413.848 311.514 405.659 300.919 395.877C290.324 386.095 285.789 396.186 295.192 404.96C304.596 413.734 318.936 412.84 330.333 421.637C330.333 421.637 308.754 417.8 307.597 425.508C306.944 429.861 314.389 427.902 317.905 427.467C334.846 425.348 348.132 438.738 348.132 438.738L354.215 433.16Z" fill="#92E3A9" stroke="#263238" stroke-width="0.952577" stroke-linecap="round" stroke-linejoin="round"/>
<path d="M333.334 395.316C336.037 412.749 348.396 432.747 348.396 432.747C348.396 432.747 315.248 398.523 306.612 380.677" stroke="#263238" stroke-width="0.952577" stroke-linecap="round" stroke-linejoin="round"/>
<path d="M302.351 404.192C302.351 404.192 323.129 417.147 335.797 419.083" stroke="#263238" stroke-width="0.952577" stroke-linecap="round" stroke-linejoin="round"/>
<path d="M315.237 424.283C315.237 424.283 336.312 424.283 343.746 427.833" stroke="#263238" stroke-width="0.952577" stroke-linecap="round" stroke-linejoin="round"/>
<path d="M403.524 352.936C403.524 352.936 420.773 354.299 421.484 367.024C421.484 367.024 404.028 375.054 403.524 352.936Z" fill="#92E3A9" stroke="#263238" stroke-width="0.952577" stroke-linecap="round" stroke-linejoin="round"/>
<path d="M437.634 356.086C437.634 356.086 447.266 343.063 462.832 349.74C462.832 349.752 453.326 365.501 437.634 356.086Z" fill="#92E3A9" stroke="#263238" stroke-width="0.952577" stroke-linecap="round" stroke-linejoin="round"/>
<path d="M461.515 314.978C461.515 314.978 464.322 340.05 441.482 333.178C441.482 333.178 448.721 314.714 461.515 314.978Z" fill="#92E3A9" stroke="#263238" stroke-width="0.952577" stroke-linecap="round" stroke-linejoin="round"/>
<path d="M433.51 301.038C433.51 301.038 451.55 310.762 438.287 325.515C438.287 325.515 425.642 314.978 433.51 301.038Z" fill="#92E3A9" stroke="#263238" stroke-width="0.952577" stroke-linecap="round" stroke-linejoin="round"/>
<path d="M411.324 323.419C411.324 323.419 430.933 321.438 430.933 339.592C430.933 339.592 411.324 340.371 411.324 323.419Z" fill="#92E3A9" stroke="#263238" stroke-width="0.952577" stroke-linecap="round" stroke-linejoin="round"/>
<path d="M429.811 392.933C429.811 392.933 420.877 374.172 429.456 355.055C438.035 335.938 440.91 319.857 436.454 308.518" stroke="#263238" stroke-width="0.952577" stroke-linecap="round" stroke-linejoin="round"/>
<path d="M417.761 328.299C417.761 328.299 429.513 332.972 433.51 345.079" stroke="#263238" stroke-width="0.952577" stroke-linecap="round" stroke-linejoin="round"/>
<path d="M455.319 325C455.319 325 448.526 334.255 436.992 333.258" stroke="#263238" stroke-width="0.952577" stroke-linecap="round" stroke-linejoin="round"/>
<path d="M455.319 352.409C455.319 352.409 436.5 357.838 428.974 356.063" stroke="#263238" stroke-width="0.952577" stroke-linecap="round" stroke-linejoin="round"/>
<path d="M409.148 358.663C409.148 358.663 417.555 367.895 426.019 367.746" stroke="#263238" stroke-width="0.952577" stroke-linecap="round" stroke-linejoin="round"/>
<path d="M293.829 418.281C293.829 418.281 278.848 421.946 280.085 433.251C280.027 433.251 296.555 437.833 293.829 418.281Z" fill="#92E3A9" stroke="#263238" stroke-width="0.952577" stroke-linecap="round" stroke-linejoin="round"/>
<path d="M264.244 425.955C264.244 425.955 253.935 415.864 241.153 423.973C241.153 423.951 251.77 436.458 264.244 425.955Z" fill="#92E3A9" stroke="#263238" stroke-width="0.952577" stroke-linecap="round" stroke-linejoin="round"/>
<path d="M237.35 393.139C237.35 393.139 238.495 415.601 257.589 406.266C257.589 406.266 248.575 391.078 237.35 393.139Z" fill="#92E3A9" stroke="#263238" stroke-width="0.952577" stroke-linecap="round" stroke-linejoin="round"/>
<path d="M260.017 376.852C260.017 376.852 245.551 387.997 259.296 399.095C259.296 399.095 268.94 388.008 260.017 376.852Z" fill="#92E3A9" stroke="#263238" stroke-width="0.952577" stroke-linecap="round" stroke-linejoin="round"/>
<path d="M282.753 393.403C282.753 393.403 265.206 394.457 267.794 410.446C267.794 410.446 285.181 408.327 282.753 393.403Z" fill="#92E3A9" stroke="#263238" stroke-width="0.952577" stroke-linecap="round" stroke-linejoin="round"/>
<path d="M276.396 457.259C276.396 457.259 281.596 439.459 271.311 423.859C261.025 408.259 256.169 394.491 258.494 383.862" stroke="#263238" stroke-width="0.952577" stroke-linecap="round" stroke-linejoin="round"/>
<path d="M277.782 398.614C277.782 398.614 268.092 404.41 266.328 415.646" stroke="#263238" stroke-width="0.952577" stroke-linecap="round" stroke-linejoin="round"/>
<path d="M244.245 401.077C244.245 401.077 251.541 408.259 261.529 405.739" stroke="#263238" stroke-width="0.952577" stroke-linecap="round" stroke-linejoin="round"/>
<path d="M248.151 425.222C248.151 425.222 265.492 427.307 271.826 424.672" stroke="#263238" stroke-width="0.952577" stroke-linecap="round" stroke-linejoin="round"/>
<path d="M289.706 424.134C289.706 424.134 283.612 433.457 276.144 434.534" stroke="#263238" stroke-width="0.952577" stroke-linecap="round" stroke-linejoin="round"/>
<path d="M458.915 395.579L457.014 395.51L457.495 389.966C457.598 389.426 457.522 388.867 457.277 388.374C456.876 387.756 456.052 387.63 455.33 387.469C453.224 386.988 451.359 385.769 450.073 384.033C449.156 382.785 448.504 381.25 447.175 380.459C445.319 379.314 442.983 380.139 440.91 380.734C438.836 381.33 436.179 381.502 434.942 379.738C434.22 378.707 434.175 377.218 433.178 376.439C432.182 375.66 430.349 376.164 429.032 376.817C423.958 379.314 418.288 382.544 417.314 388.145C416.971 390.058 411.038 398.041 408.919 399.106C405.219 400.951 398.221 397.423 394.464 396.174C386.402 395.979 378.364 395.214 370.41 393.883C368.12 393.883 365.829 396.174 363.538 398.465C362.393 399.61 362.393 400.756 361.247 401.901C357.811 405.337 352.084 407.628 350.939 413.355C350.939 421.373 341.775 425.955 334.903 429.391C324.595 433.972 314.286 435.118 303.977 439.699C298.25 441.99 291.378 441.99 284.506 441.99C276.488 448.862 270.761 456.88 265.034 466.043C263.889 467.189 262.743 469.48 260.452 469.48C187.147 469.48 112.696 469.48 39.0358 469.079V495.217H459.396L458.915 395.579Z" fill="white"/>
<path d="M39.0243 469.079C112.685 469.48 187.136 469.48 260.441 469.48C262.732 469.48 263.877 467.189 265.022 466.044C270.749 456.881 276.476 448.863 284.494 441.991C291.367 441.991 298.239 441.991 303.966 439.7C314.275 435.118 324.583 433.973 334.892 429.391C341.764 425.955 350.927 421.373 350.927 413.356C352.073 407.629 357.8 405.338 361.236 401.902C362.381 400.756 362.381 399.611 363.527 398.465C365.817 396.175 368.108 393.884 370.399 393.884C378.353 395.214 386.39 395.98 394.452 396.175C398.209 397.423 405.208 400.951 408.907 399.107C411.026 398.042 416.925 390.058 417.303 388.145C418.277 382.579 423.946 379.314 429.02 376.817C430.338 376.165 432.01 375.546 433.167 376.439C434.324 377.333 434.209 378.73 434.931 379.738C436.168 381.502 438.813 381.319 440.898 380.735C442.983 380.151 445.308 379.36 447.163 380.46C448.492 381.25 449.145 382.751 450.061 384.033C451.347 385.77 453.212 386.989 455.319 387.47C456.04 387.63 456.865 387.756 457.266 388.375" stroke="#263238" stroke-width="0.952577" stroke-linecap="round" stroke-linejoin="round"/>
<path d="M397.087 418.281C401.978 418.647 409.068 415.36 409.148 415.646C409.228 415.933 417.761 416.964 417.761 416.964C417.761 416.964 429.066 420.182 430.933 418.281C432.8 416.379 438.561 417.685 443.155 417.261C447.748 416.838 452.432 420.56 452.432 420.56C452.432 420.56 460.542 427.513 461.595 427.833C462.649 428.154 470.827 430.548 474 432.747" stroke="#263238" stroke-width="0.952577" stroke-linecap="round" stroke-linejoin="round"/>
<path d="M260.441 469.48H279.913C279.913 469.48 292.512 462.986 298.972 463.696C305.432 464.406 310.941 469.079 310.941 469.079H322.075L335.751 470.797H344.776" stroke="#263238" stroke-width="0.952577" stroke-linecap="round" stroke-linejoin="round"/>
<path d="M390.65 441.12C387.935 438.13 376.584 437.501 375.003 434.648C373.423 431.796 363.469 438.325 362.106 437.317C360.743 436.309 353.573 438.119 352.405 441.521C351.237 444.923 351.809 445.541 347.216 447.248" stroke="#263238" stroke-width="0.952577" stroke-linecap="round" stroke-linejoin="round"/>
<path d="M463.394 400.882C462.527 400.122 461.419 399.693 460.267 399.67C459.114 399.647 457.99 400.031 457.094 400.756C456.835 401.004 456.559 401.233 456.269 401.444C455.441 401.804 454.533 401.942 453.635 401.844C451.601 401.893 449.637 402.596 448.034 403.849C447.559 404.311 446.999 404.677 446.384 404.926C446.008 405.012 445.625 405.062 445.239 405.074C444.228 405.208 443.268 405.603 442.456 406.22" stroke="#263238" stroke-width="0.952577" stroke-linecap="round" stroke-linejoin="round"/>
<path d="M403.066 469.938C408.048 472.137 414.199 470.202 417.956 466.227C420.934 463.054 423.351 458.335 427.703 458.152C428.848 458.152 429.994 458.404 431.139 458.415C433.716 458.415 436.042 457.03 438.435 456.125C440.829 455.22 443.819 454.727 445.754 456.422C447.037 457.568 447.576 459.389 448.973 460.374C450.37 461.359 452.169 461.21 453.818 461.519C455.467 461.829 457.254 463.169 456.911 464.818" stroke="#263238" stroke-width="0.952577" stroke-linecap="round" stroke-linejoin="round"/>
</svg>
